# xmcd
#
# Track frame offsets: 
#        150
#        12177
#        23828
#        34865
#        52502
#        68322
#        84197
#        97042
#        116323
#        130995
#        149508
#        161378
#        173770
#        188141
#        196825
#
# Disc length: 2825 seconds
#
# Revision: 0
# Processed by: cddbd v1.5.2PL0 Copyright (c) Steve Scherf et al.
# Submitted via: ExactAudioCopy v0.99pb4
#
DISCID=af0b070f
DTITLE=Los Cuates de Sinaloa - Puros Exitos Chacas
DYEAR=2008
DGENRE=Latin
TTITLE0=El Carril Numero Tres
TTITLE1=Nina Coqueta
TTITLE2=Equis 4 Equis 5
TTITLE3=Un Beso Al Viente (Nueva Verion)
TTITLE4=Cuy Y Mauricio
TTITLE5=Flor Hermosa
TTITLE6=El Flechazo
TTITLE7=Hombre De Negocios
TTITLE8=Tu Nuevo Carinito
TTITLE9=Macario Leyva
TTITLE10=La Pelota De Lolita
TTITLE11=Comandante Bandido
TTITLE12=El Desterrado
TTITLE13=Tres Flores
TTITLE14=Cuadro Lavado
EXTD=
EXTT0=
EXTT1=
EXTT2=
EXTT3=
EXTT4=
EXTT5=
EXTT6=
EXTT7=
EXTT8=
EXTT9=
EXTT10=
EXTT11=
EXTT12=
EXTT13=
EXTT14=
PLAYORDER=
